<svg preserveAspectRatio="none" width="100%" height="100%" overflow="visible" style="display: block;" viewBox="0 0 24 26" fill="none" xmlns="http://www.w3.org/2000/svg">
<path id="Vector" d="M22.5752 14.9499C21.6504 13.7894 20.3504 13.0461 18.6753 12.6749C20.1001 12.3266 21.2256 11.6537 22.0752 10.6091C22.9503 9.56454 23.3751 8.2643 23.3751 6.75544C23.3751 4.54988 22.5501 2.87849 20.9252 1.71797C19.3002 0.557448 17.0749 0 14.2253 0H0V26H14.625C17.6502 26 19.9502 25.3965 21.5501 24.1661C23.175 22.9124 24 21.1483 24 18.8734C23.9749 17.3878 23.5 16.0643 22.5752 14.9504V14.9499ZM7.02487 24.2122C7.2997 23.3301 7.60012 22.4481 7.87495 21.5423C8.07506 20.8922 8.29974 20.2654 8.49985 19.6157C8.72504 18.8729 9.12475 18.1069 9.12475 17.3175C9.12475 16.4816 8.57457 15.6694 7.8248 15.2517C6.7746 14.6714 5.67476 15.0891 4.59999 15.3676L14.3998 2.78534C14.1997 3.85319 11.9248 8.89066 12.3997 10.0512C12.4995 10.2831 12.6495 10.4689 12.8245 10.6314C13.8993 11.6066 15.1747 11.2583 16.4495 10.9332L7.02435 24.2117L7.02487 24.2122Z" fill="var(--fill-0, white)"/>
</svg>
