<svg preserveAspectRatio="none" width="100%" height="100%" overflow="visible" style="display: block;" viewBox="0 0 13 13" fill="none" xmlns="http://www.w3.org/2000/svg">
<g id="Group">
<path id="Vector" d="M3.22819 0.180716C3.96737 0.719415 4.54293 1.45471 5.03442 2.15832L5.32026 2.57479L5.58993 2.97251C5.72482 3.16958 5.7825 3.40939 5.75197 3.64624C5.72144 3.88309 5.60483 4.10043 5.42438 4.25685L4.16267 5.19392C4.10171 5.23793 4.05881 5.30258 4.04192 5.37585C4.02503 5.44911 4.0353 5.52602 4.07084 5.59228C4.35668 6.11158 4.86499 6.88503 5.44701 7.46706C6.02904 8.04909 6.83935 8.59102 7.39487 8.9092C7.46452 8.94829 7.5465 8.95922 7.62396 8.93974C7.70143 8.92025 7.76848 8.87183 7.81134 8.80443L8.63265 7.55436C8.78364 7.35379 9.00639 7.21942 9.25424 7.1794C9.50208 7.13937 9.75581 7.19681 9.96226 7.33966L10.391 7.63649C11.1923 8.19265 12.053 8.82448 12.7114 9.66713C12.8158 9.80151 12.8822 9.96145 12.9037 10.1303C12.9252 10.2991 12.901 10.4706 12.8336 10.6268C12.2923 11.8898 10.9226 12.9653 9.49793 12.9129L9.30392 12.9019L9.15324 12.889L8.98639 12.8696L8.80467 12.845L8.60743 12.8127L8.50395 12.7933L8.28666 12.7467L8.17284 12.7208L7.93615 12.66L7.68717 12.5889L7.4272 12.5048C6.2334 12.1 4.71818 11.3046 3.16352 9.7499C1.60886 8.19524 0.81407 6.68067 0.409238 5.48687L0.325167 5.2269L0.25403 4.97792L0.193241 4.74123L0.142798 4.51747C0.128246 4.44739 0.114664 4.37711 0.102056 4.30665L0.0697213 4.10941L0.0438533 3.92768L0.0250991 3.76083L0.0121651 3.61015L0.00181799 3.41614C-0.0505645 1.996 1.03653 0.61659 2.29371 0.0778909C2.44503 0.012553 2.61073 -0.0123231 2.77455 0.00570361C2.93838 0.0237303 3.09471 0.0840404 3.22819 0.180716ZM8.48908 2.50559L8.5641 2.514C9.03483 2.59703 9.4672 2.82697 9.79922 3.17084C10.1312 3.51471 10.3459 3.95487 10.4124 4.42823C10.4361 4.59196 10.3961 4.75855 10.3007 4.89372C10.2054 5.0289 10.0618 5.12238 9.8996 5.15494C9.73739 5.18749 9.56888 5.15665 9.42873 5.06875C9.28857 4.98085 9.18744 4.84258 9.14612 4.68238L9.13125 4.60801C9.10523 4.42247 9.02604 4.24844 8.90325 4.10694C8.78045 3.96544 8.61931 3.86252 8.43928 3.81063L8.33905 3.788C8.17666 3.75921 8.0314 3.66948 7.93298 3.53715C7.83457 3.40481 7.79043 3.23988 7.80959 3.07608C7.82876 2.91227 7.90978 2.76198 8.03608 2.65594C8.16239 2.5499 8.32443 2.49612 8.48908 2.50559ZM8.49425 0.539633C9.52334 0.539633 10.5103 0.948437 11.238 1.67611C11.9656 2.40379 12.3744 3.39073 12.3744 4.41982C12.3743 4.58465 12.3111 4.74319 12.198 4.86305C12.0848 4.9829 11.9302 5.05503 11.7656 5.06469C11.6011 5.07435 11.4391 5.02081 11.3127 4.91502C11.1863 4.80923 11.105 4.65916 11.0856 4.49548L11.081 4.41982C11.081 3.76314 10.8312 3.13106 10.3823 2.65177C9.93335 2.17248 9.31896 1.88186 8.66369 1.83885L8.49425 1.83303C8.32274 1.83303 8.15825 1.76489 8.03697 1.64362C7.91569 1.52234 7.84756 1.35785 7.84756 1.18633C7.84756 1.01482 7.91569 0.850326 8.03697 0.729046C8.15825 0.607767 8.32274 0.539633 8.49425 0.539633Z" fill="var(--fill-0, white)"/>
</g>
</svg>
